<svg width="128" height="128" viewBox="0 0 128 128" fill="none" xmlns="http://www.w3.org/2000/svg">
<rect width="128" height="128" rx="20" fill="#FFD55A"/>
<path d="M116 8H36C33.7875 8 32 9.7875 32 12V40H120V12C120 9.7875 118.213 8 116 8ZM48 29C45.2375 29 43 26.7625 43 24C43 21.2375 45.2375 19 48 19C50.7625 19 53 21.2375 53 24C53 26.7625 50.7625 29 48 29ZM32 116C32 118.213 33.7875 120 36 120H116C118.213 120 120 118.213 120 116V88H32V116ZM48 99C50.7625 99 53 101.238 53 104C53 106.762 50.7625 109 48 109C45.2375 109 43 106.762 43 104C43 101.238 45.2375 99 48 99ZM32 80H120V48H32V80ZM48 59C50.7625 59 53 61.2375 53 64C53 66.7625 50.7625 69 48 69C45.2375 69 43 66.7625 43 64C43 61.2375 45.2375 59 48 59Z" fill="black" fill-opacity="0.15"/>
<path d="M85 86H81.6325C80.8062 83.675 78.6062 82 76 82C73.3938 82 71.1937 83.675 70.3688 86H67C65.3438 86 64 87.3425 64 89V111C64 112.656 65.3438 114 67 114H85C86.6562 114 88 112.657 88 111V89C88 87.3425 86.6562 86 85 86ZM76 86C77.1044 86 78 86.8956 78 88C78 89.1044 77.1044 90 76 90C74.8956 90 74 89.1062 74 88C74 86.8956 74.8938 86 76 86ZM76 94C78.2094 94 80 95.7906 80 98C80 100.209 78.2094 102 76 102C73.7906 102 72 100.206 72 98C72 95.7937 73.7937 94 76 94ZM82 110H70C69.4478 110 69 109.552 69 109C69 106.237 71.2375 104 74 104H78C80.7612 104 83 106.239 83 109C83 109.55 82.55 110 82 110Z" fill="black" fill-opacity="0.75"/>
<path d="M100.5 100.001V119.5H93.5V100V99.9994C93.4935 94.5646 91.3316 89.3543 87.4887 85.5113C83.6457 81.6684 78.4354 79.5065 73.0006 79.5H73H49H48.9994C43.5646 79.5065 38.3543 81.6684 34.5113 85.5113C30.6684 89.3543 28.5065 94.5646 28.5 99.9994V100V119.5H21.5V100.001C21.5083 92.7095 24.4084 85.7195 29.5639 80.5639C34.7195 75.4084 41.7095 72.5083 49.0006 72.5H72.9994C80.2905 72.5083 87.2805 75.4084 92.4361 80.5639C97.5916 85.7195 100.492 92.7095 100.5 100.001ZM101.183 48.683L114.173 56.183L110.673 62.245L97.683 54.745L101.183 48.683ZM101.5 32.5H116.5V39.5H101.5V32.5ZM20.817 48.683L24.317 54.745L11.327 62.245L7.82701 56.183L20.817 48.683ZM72.3892 18.9549C69.018 16.7023 65.0545 15.5 61 15.5C55.5631 15.5 50.3488 17.6598 46.5043 21.5043C42.6598 25.3488 40.5 30.5631 40.5 36C40.5 40.0545 41.7023 44.018 43.9549 47.3892C46.2074 50.7604 49.4091 53.3879 53.155 54.9395C56.9009 56.4911 61.0227 56.8971 64.9994 56.1061C68.976 55.3151 72.6287 53.3627 75.4957 50.4957C78.3627 47.6287 80.3151 43.976 81.1061 39.9994C81.8971 36.0227 81.4911 31.9009 79.9395 28.155C78.3879 24.4091 75.7604 21.2074 72.3892 18.9549ZM45.7218 13.1346C50.2442 10.1128 55.561 8.5 61 8.5C68.2935 8.5 75.2882 11.3973 80.4454 16.5546C85.6027 21.7118 88.5 28.7065 88.5 36C88.5 41.439 86.8872 46.7558 83.8654 51.2782C80.8437 55.8005 76.5488 59.3253 71.5238 61.4067C66.4988 63.4881 60.9695 64.0327 55.635 62.9716C50.3005 61.9105 45.4005 59.2914 41.5546 55.4454C37.7086 51.5995 35.0895 46.6995 34.0284 41.365C32.9673 36.0305 33.5119 30.5012 35.5933 25.4762C37.6747 20.4512 41.1995 16.1563 45.7218 13.1346ZM97.683 17.255L110.673 9.75501L114.173 15.817L101.183 23.317L97.683 17.255ZM5.5 32.5H20.5V39.5H5.5V32.5ZM20.817 23.317L7.82702 15.817L11.327 9.75501L24.317 17.255L20.817 23.317Z" fill="#008080" stroke="#ADD8E6"/>
</svg>
