<svg width="1024" height="1024" viewBox="0 0 1024 1024" fill="none" xmlns="http://www.w3.org/2000/svg">
<rect width="1024" height="1024" rx="20" fill="#FFD55A"/>
<path d="M565 456H485C482.787 456 481 457.787 481 460V488H569V460C569 457.787 567.213 456 565 456ZM497 477C494.237 477 492 474.763 492 472C492 469.237 494.237 467 497 467C499.763 467 502 469.237 502 472C502 474.763 499.763 477 497 477ZM481 564C481 566.213 482.787 568 485 568H565C567.213 568 569 566.213 569 564V536H481V564ZM497 547C499.763 547 502 549.237 502 552C502 554.763 499.763 557 497 557C494.237 557 492 554.763 492 552C492 549.237 494.237 547 497 547ZM481 528H569V496H481V528ZM497 507C499.763 507 502 509.237 502 512C502 514.763 499.763 517 497 517C494.237 517 492 514.763 492 512C492 509.237 494.237 507 497 507Z" fill="black" fill-opacity="0.15"/>
<path d="M534 534H530.632C529.806 531.675 527.606 530 525 530C522.394 530 520.194 531.675 519.369 534H516C514.344 534 513 535.342 513 537V559C513 560.656 514.344 562 516 562H534C535.656 562 537 560.658 537 559V537C537 535.342 535.656 534 534 534ZM525 534C526.104 534 527 534.896 527 536C527 537.104 526.104 538 525 538C523.896 538 523 537.106 523 536C523 534.896 523.894 534 525 534ZM525 542C527.209 542 529 543.791 529 546C529 548.209 527.209 550 525 550C522.791 550 521 548.206 521 546C521 543.794 522.794 542 525 542ZM531 558H519C518.448 558 518 557.552 518 557C518 554.237 520.237 552 523 552H527C529.761 552 532 554.239 532 557C532 557.55 531.55 558 531 558Z" fill="black" fill-opacity="0.75"/>
<path d="M549.5 548.001V567.5H542.5V548V547.999C542.493 542.565 540.332 537.354 536.489 533.511C532.646 529.668 527.435 527.507 522.001 527.5H522H498H497.999C492.565 527.507 487.354 529.668 483.511 533.511C479.668 537.354 477.507 542.565 477.5 547.999V548V567.5H470.5V548.001C470.508 540.71 473.408 533.719 478.564 528.564C483.719 523.408 490.71 520.508 498.001 520.5H521.999C529.29 520.508 536.281 523.408 541.436 528.564C546.592 533.719 549.492 540.71 549.5 548.001ZM550.183 496.683L563.173 504.183L559.673 510.245L546.683 502.745L550.183 496.683ZM550.5 480.5H565.5V487.5H550.5V480.5ZM469.817 496.683L473.317 502.745L460.327 510.245L456.827 504.183L469.817 496.683ZM521.389 466.955C518.018 464.702 514.055 463.5 510 463.5C504.563 463.5 499.349 465.66 495.504 469.504C491.66 473.349 489.5 478.563 489.5 484C489.5 488.055 490.702 492.018 492.955 495.389C495.207 498.76 498.409 501.388 502.155 502.94C505.901 504.491 510.023 504.897 513.999 504.106C517.976 503.315 521.629 501.363 524.496 498.496C527.363 495.629 529.315 491.976 530.106 487.999C530.897 484.023 530.491 479.901 528.94 476.155C527.388 472.409 524.76 469.207 521.389 466.955ZM494.722 461.135C499.244 458.113 504.561 456.5 510 456.5C517.293 456.5 524.288 459.397 529.445 464.555C534.603 469.712 537.5 476.707 537.5 484C537.5 489.439 535.887 494.756 532.865 499.278C529.844 503.801 525.549 507.325 520.524 509.407C515.499 511.488 509.969 512.033 504.635 510.972C499.301 509.91 494.401 507.291 490.555 503.445C486.709 499.599 484.09 494.699 483.028 489.365C481.967 484.031 482.512 478.501 484.593 473.476C486.675 468.451 490.199 464.156 494.722 461.135ZM546.683 465.255L559.673 457.755L563.173 463.817L550.183 471.317L546.683 465.255ZM454.5 480.5H469.5V487.5H454.5V480.5ZM469.817 471.317L456.827 463.817L460.327 457.755L473.317 465.255L469.817 471.317Z" fill="#008080" stroke="#ADD8E6"/>
</svg>
